<?xml version="1.0" encoding="UTF-8"?>
<svg xmlns="http://www.w3.org/2000/svg" xmlns:xlink="http://www.w3.org/1999/xlink" viewBox="0 0 512 512" width="512px" height="512px">
<g id="surface148304824">
<path style=" stroke:none;fill-rule:nonzero;fill:rgb(100%,0%,0%);fill-opacity:1;" d="M 217.5 64 L 212.5 68.5 L 201 80 L 96 80 L 96 112 L 112 112 L 112 400 C 112 426.3125 133.6875 448 160 448 L 352 448 C 378.3125 448 400 426.3125 400 400 L 400 112 L 416 112 L 416 80 L 311 80 L 299.5 68.5 L 294.5 64 Z M 231 96 L 281 96 L 292.5 107.5 L 297.5 112 L 368 112 L 368 400 C 368 408.875 360.875 416 352 416 L 160 416 C 151.125 416 144 408.875 144 400 L 144 112 L 214.5 112 L 219.5 107.5 Z M 176 176 L 176 352 L 208 352 L 208 176 Z M 240 176 L 240 352 L 272 352 L 272 176 Z M 304 176 L 304 352 L 336 352 L 336 176 Z M 304 176 "/>
</g>
</svg>
